<?xml version="1.0" encoding="UTF-8"?>
<svg id="Capa_1" xmlns="http://www.w3.org/2000/svg" version="1.1" viewBox="0 0 700 250">
  <!-- Generator: Adobe Illustrator 29.3.1, SVG Export Plug-In . SVG Version: 2.1.0 Build 151)  -->
  <defs>
    <style>
      .st0 {
        fill: #ffe;
      }
    </style>
  </defs>
  <path class="st0" d="M390.1,98.8c0-17.6.3-33.9,1.2-49.1l-46.3,8.8v4.2l4.5.6c3.3.3,5.5,1.5,6.7,3.3,1.2,2.1,2.1,5.1,2.7,9.7.6,8.8,1.2,28.8.9,60.3,0,31.2-.3,50.9-.9,58.5,16.7,3.6,29.7,5.1,39.4,5.1,18.2,0,32.4-5.1,42.7-15.7,10.3-10.3,15.7-24.8,15.7-42.7s-3.9-26-11.8-35.4c-7.9-9.4-17.9-13.9-29.7-13.9s-16.1,2.1-25.1,6.4ZM391,192.1c-.6-9.7-1.2-38.8-1.2-86.3,2.7-.9,6.4-1.5,10.9-1.5,7.3,0,13,3.6,17.3,11.2,4.2,7.6,6.4,16.7,6.4,28.2s-2.4,25.7-7.3,35.4c-4.8,9.4-10.9,14.2-18.5,14.2-2.4-.6-4.8-.9-7.6-1.2ZM171.2,52.8H50v6.1l6.4.6c4.8.9,8.2,2.7,10.3,5.5,2.1,3,3.3,7.9,3.6,14.5,2.4,32.7,2.4,63.3,0,91.5-.6,6.7-1.8,11.5-3.6,14.5-2.1,3-5.5,4.8-10.3,5.5l-6.4.9v6.1h78.1v-6.1l-8.2-.6c-4-.3-7.8-2.3-10.3-5.5-2.1-3-3.3-7.9-3.6-14.5-.9-12.1-1.5-26-1.5-41.5l16.4.3c8.8.3,14.8,7,17.9,20.3h6.1v-49.4h-6.1c-3,13-8.8,19.7-17.9,20l-16.4.3c0-27.3.6-46.6,1.5-58.5h23.9c17,0,28.5,10.9,35.1,32.7l7.3-2.1-1.2-40.6ZM156.9,146c0,15.7,4.5,28.8,13.3,39.1,8.8,10.3,21.8,15.1,38.2,15.1s29.7-5.1,39.4-15.7c9.7-10.3,14.2-23.3,14.2-39.1s-4.5-28.8-13.3-39.1-21.8-15.1-38.2-15.1-29.7,5.1-39.4,15.7c-9.7,10.3-14.2,23.3-14.2,39.1ZM224.5,111.5c3.6,8.8,5.1,20.3,5.1,34.2,0,32.1-6.7,47.9-19.7,47.9s-11.8-4.5-15.4-13.6c-3.6-9.1-5.1-20.6-5.1-34.2,0-31.8,6.7-47.6,19.7-47.6,6.7-.3,11.8,4.2,15.4,13.3ZM480.4,185.1c10,10,22.7,15.1,37.9,15.1s17.6-1.8,24.8-5.8c7.3-3.6,13-8.2,17-13.6l-3-3.6c-6.7,5.1-14.2,7.6-23,7.6s-21.5-3.9-27.9-12.1c-6.7-8.2-9.7-18.5-9.1-31.8h64.8c0-14.5-3.6-26.4-11.2-35.7-7.6-9.1-18.2-13.6-31.8-13.6s-30,5.5-39.4,16.1c-9.4,10.6-13.9,23.6-13.9,39.1s4.8,28.5,14.8,38.5h0ZM502.8,109.1c3.3-7.3,7.6-10.9,13.3-10.9,9.1,0,13.6,11.5,13.6,34.8l-32.1.6c.3-9.1,1.8-17.3,5.1-24.5h0ZM643.3,97c-8.2-3.6-18.5-5.8-30.9-5.8s-22.7,3.3-30.3,9.7-11.5,14.2-11.5,23.6,2.4,14.5,7,19.1,11.8,8.5,21.2,11.8c8.5,3,14.5,6.1,17.6,8.8,3,3,4.8,6.4,4.8,10.9s-1.5,8.2-4.8,11.2c-3,3.3-7.3,4.8-12.7,4.8-13.3,0-23.3-9.7-30.3-29.1l-5.1,1.5,1.2,30.3c10.9,4.2,23,6.4,36.3,6.4s24.5-3,32.4-9.4c7.9-6.1,11.8-14.8,11.8-25.7s-1.8-13.3-5.8-17.9c-3.9-4.5-10.3-8.5-19.4-12.1-10-3.6-17-7-20.6-10-3.6-3-5.5-6.7-5.5-11.2s1.2-8.2,3.9-11.2,6.1-4.2,10.3-4.2c12.1,0,20.9,8.8,26.4,26l5.1-1.5-1.2-26ZM352,94.3c-4.2-2.1-8.8-3-13.9-3s-10.3,2.1-16.1,6.4-10,10-13.3,17.9l.3-24.2-46,9.1v4.2l4.5.3c5.8.6,9.1,5.1,9.7,13.3,1.8,18.8,1.8,38.8,0,60-.6,8.2-3.9,12.4-9.7,13.3l-4.5.6v5.8h64.2v-5.8l-8.2-.6c-5.8-.6-9.1-5.1-9.7-13.3-1.8-17.6-2.1-36.3-.6-55.7,1.8-3,5.8-4.8,11.8-5.5,6.1-.6,13,1.2,20.3,5.5,0,0,11.2-28.2,11.2-28.2Z"/>
</svg>